<svg xmlns="http://www.w3.org/2000/svg" viewBox="5 11 32 20" xml:space="preserve">
  <!-- <path style="fill:#231f20" d="M0 0h41.46v31.46H0z"/> -->
  <path d="M33.96 29.44c-.65.4-1.37.6-2.09.6h-8.98c-1.33 0-2.62-.67-3.38-1.88l-1.39-2.25c-2.73-.41-4.08.51-5.18 2.29-.7 1.1-1.94 1.84-3.34 1.84-2.19 0-3.97-1.78-3.97-3.97a3.965 3.965 0 0 1 4.38-3.95c3.55.19 6.99 2.78 7.98 3.57l-5.1-8.23a3.96 3.96 0 0 1 3.3-6.05h8.94c1.36-.04 2.71.63 3.48 1.87l6.63 10.69c1.15 1.87.58 4.32-1.28 5.47" style="fill:#fff"/>
</svg>
